<svg width="492" height="141" viewBox="0 0 492 141" fill="none" xmlns="http://www.w3.org/2000/svg">
<path d="M101.663 22.55C101.663 28.528 99.2882 34.2612 95.0612 38.4882C90.8341 42.7153 85.1009 45.09 79.1229 45.09C66.6729 45.09 48.1929 31.98 32.4629 22.55C50.8129 11.55 66.6729 0 79.1229 0C85.1018 0.0026514 90.8349 2.37962 95.0616 6.60828C99.2884 10.8369 101.663 16.5711 101.663 22.55Z" fill="#CEF866"/>
<path d="M30.8925 85.979L12.7325 96.3791C8.58284 98.7047 5.19092 102.176 2.96247 106.379C1.10657 109.776 0.194556 113.608 0.321175 117.477C0.447794 121.346 1.60846 125.111 3.6825 128.379C14.1725 144.629 30.9425 138.929 30.9425 138.929L61.9425 121.539L83.3825 109.539C83.3825 109.539 101.212 99.539 101.212 86.989C101.212 74.439 95.9625 68.6491 81.8125 60.7791C67.6625 52.9091 39.3525 36.6691 39.3525 36.6691C39.3525 36.6691 18.3525 20.939 3.1825 43.479C-7.8175 63.929 15.1825 75.989 15.1825 75.989L30.8925 85.979Z" fill="#325D53"/>
<path opacity="0.38" d="M62.6725 105.081C48.5225 97.0806 30.8925 85.9805 30.8925 85.9805L12.2925 96.6105C7.99578 99.0012 4.51299 102.623 2.2925 107.01C-0.327499 112.32 -1.6375 119.791 3.6025 128.441C14.0925 145.741 30.8625 138.99 30.8625 138.99L59.4825 122.661C59.4825 122.661 77.3525 112.551 62.6725 105.081Z" fill="url(#paint0_linear_3275_686)"/>
<path d="M158.123 113.081C143.123 113.081 132.712 104.781 132.062 94.2212H147.243C147.783 98.5212 151.983 101.811 158.013 101.811C164.043 101.811 167.172 99.2412 167.172 95.9612C167.172 85.8112 133.463 92.2712 133.463 71.4512C133.463 62.0212 142.293 54.4512 157.043 54.4512C171.473 54.4512 180.203 61.9412 181.043 73.2212H166.633C166.203 68.8112 162.533 65.8312 156.633 65.8312C151.033 65.8312 148.123 67.9911 148.123 71.2711C148.123 81.6311 181.183 75.1711 181.623 95.9811C181.603 105.701 172.663 113.081 158.123 113.081Z" fill="#151515"/>
<path d="M188.592 55.3613H203.672V112.161H188.592V55.3613Z" fill="#151515"/>
<path d="M253.213 66.9414L226.932 100.371H253.533V112.161H209.812V100.571L235.873 67.1514H209.873V55.3613H253.163L253.213 66.9414Z" fill="#151515"/>
<path d="M301.562 80.7812C301.562 71.6613 296.282 66.7812 288.312 66.7812C280.132 66.7812 274.852 71.7013 274.852 80.7812V112.161H259.732V55.3612H274.812V62.4313C278.692 57.6113 285.152 54.5312 292.812 54.5312C306.712 54.5312 316.612 63.1513 316.612 78.8413V112.161H301.542L301.562 80.7812Z" fill="#151515"/>
<path d="M348.941 54.4297C358.521 54.4297 365.091 58.7397 368.641 63.4297V55.3297H383.831V112.13H368.641V103.83C365.091 108.75 358.311 113.05 348.831 113.05C333.751 113.05 321.691 101.26 321.691 83.5197C321.691 65.7797 333.731 54.4297 348.941 54.4297ZM352.811 67.0397C344.741 67.0397 337.091 72.7897 337.091 83.5497C337.091 94.3097 344.741 100.47 352.811 100.47C361.111 100.47 368.641 94.5296 368.641 83.7596C368.641 72.9896 361.111 67.0397 352.811 67.0397Z" fill="#151515"/>
<path d="M476.653 80.7812C476.653 71.7812 471.383 67.0413 463.413 67.0413C455.443 67.0413 450.053 71.7612 450.053 80.7812V112.161H434.983V80.7812C434.983 71.7812 429.703 67.0413 421.733 67.0413C413.553 67.0413 408.273 71.7612 408.273 80.7812V112.161H393.203V55.3612H408.273V62.2312C412.043 57.5112 418.393 54.5312 425.823 54.5312C435.093 54.5312 442.733 58.3312 446.823 65.4012C450.703 58.9412 458.563 54.5312 467.283 54.5312C481.613 54.5312 491.733 63.1513 491.733 78.8413V112.161H476.653V80.7812Z" fill="#151515"/>
<path d="M187.873 41.9804C187.873 37.6304 191.343 34.2305 196.163 34.2305C200.983 34.2305 204.443 37.6304 204.443 41.9804C204.443 46.3304 200.873 49.7404 196.163 49.7404C191.453 49.7404 187.873 46.3404 187.873 41.9804Z" fill="#151515"/>
<defs>
<linearGradient id="paint0_linear_3275_686" x1="-0.557502" y1="139.351" x2="51.3125" y2="97.0505" gradientUnits="userSpaceOnUse">
<stop stop-color="#CADCCD" stop-opacity="0"/>
<stop offset="1" stop-color="#151515" stop-opacity="0.6"/>
</linearGradient>
</defs>
</svg>
